<?xml version="1.0" standalone="no"?>
<!DOCTYPE svg PUBLIC "-//W3C//DTD SVG 20010904//EN"
 "http://www.w3.org/TR/2001/REC-SVG-20010904/DTD/svg10.dtd">
<svg version="1.0" xmlns="http://www.w3.org/2000/svg"
 width="300.000000pt" height="300.000000pt" viewBox="0 0 300.000000 300.000000"
 preserveAspectRatio="xMidYMid meet">
<metadata>
Created by potrace 1.11, written by Peter Selinger 2001-2013
</metadata>
<g transform="translate(0.000000,300.000000) scale(0.100000,-0.100000)"
fill="#000000" stroke="none">
<path d="M1350 2993 c-262 -38 -389 -80 -617 -204 -24 -12 -80 -51 -125 -85
-328 -248 -531 -588 -593 -993 -19 -124 -13 -370 13 -497 75 -371 281 -698
581 -919 184 -137 398 -229 626 -271 106 -19 362 -26 462 -12 571 82 1035 464
1222 1004 51 146 73 279 76 454 5 277 -41 476 -167 721 -210 410 -598 697
-1063 786 -73 14 -356 25 -415 16z m390 -348 c297 -72 518 -212 691 -441 107
-141 162 -258 211 -449 29 -116 33 -348 7 -470 -52 -251 -151 -436 -323 -609
-150 -151 -372 -278 -540 -310 -12 -2 -43 -10 -71 -16 -66 -16 -292 -21 -380
-9 -230 32 -477 154 -645 319 -247 243 -363 526 -356 870 10 427 238 794 626
1008 76 42 240 97 330 112 41 6 82 13 90 15 41 8 302 -6 360 -20z"/>
<path d="M1440 2320 c-107 -30 -180 -127 -180 -239 0 -125 111 -233 239 -232
165 0 277 153 229 313 -15 50 -80 124 -127 145 -40 17 -123 24 -161 13z"/>
<path d="M838 1730 c-30 -9 -86 -46 -106 -70 -7 -8 -24 -38 -37 -65 -69 -144
33 -318 196 -332 197 -18 330 200 225 366 -31 47 -52 66 -106 90 -47 21 -122
26 -172 11z"/>
<path d="M1984 1716 c-120 -56 -171 -204 -111 -321 30 -61 58 -87 117 -114
159 -72 345 55 336 230 -9 172 -186 278 -342 205z"/>
<path d="M1470 1152 c-35 -4 -101 -33 -128 -57 -63 -54 -96 -166 -73 -251 15
-55 75 -122 135 -150 86 -40 198 -19 268 50 47 47 63 94 63 177 -1 70 -3 79
-36 125 -53 73 -145 116 -229 106z"/>
</g>
</svg>
