<?xml version="1.0" encoding="UTF-8"?>
<svg width="81px" height="39px" viewBox="0 0 81 39" version="1.1" xmlns="http://www.w3.org/2000/svg" xmlns:xlink="http://www.w3.org/1999/xlink">
    <title>Artboard</title>
    <g id="Artboard" stroke="none" stroke-width="1" fill="none" fill-rule="evenodd">
        <g id="ATL" transform="translate(-0.324607, 0.000000)" fill="#D02231" fill-rule="nonzero">
            <path d="M18.0358458,0 C20.8343771,11.1036954 23.5471595,22.2280153 26.3326986,33.3342888 C26.9069562,33.4374112 26.66039,33.342023 28.1698032,33.342023 C28.1698032,35.3155265 28.1386218,37.3637934 28.1698032,39.2767123 C23.9057457,39.2560879 19.6390898,39.2664001 15.3724339,39.2689782 C15.3880246,37.348325 15.3854261,35.4250938 15.3724339,33.5044407 C16.4377986,33.5070187 17.5005649,33.5070187 18.5659297,33.5044407 C18.2411234,32.1483822 18.0514365,30.7665432 17.7292286,29.4104847 C15.2139284,29.0933836 12.6466592,29.3589235 10.1105714,29.2738476 C9.78576504,30.6814672 9.48174631,32.094243 9.15693999,33.5018626 C10.2378954,33.5070187 11.3188509,33.5044407 12.3998064,33.5070187 C12.3894126,35.4276719 12.3868141,37.345747 12.3998064,39.2664001 C8.26567142,39.263822 4.13413494,39.2664001 0,39.2664001 C0.020787605,37.2916077 0.020787605,35.3168154 0,33.342023 C0.722369272,33.3342888 1.44473854,33.3368669 2.16710782,33.3342888 C4.85910266,22.212547 7.63164947,11.1114296 10.367818,0 C12.9246934,0.0103122317 15.4815688,0.0103122317 18.0358458,0 Z M13.9056093,11.0465753 C12.9225151,15.3320892 11.9989239,19.6331679 11.026178,23.9212759 C12.8655991,23.9342466 14.702433,23.9160876 16.539267,23.9342466 C15.6622435,19.6383562 14.8317875,15.3294951 13.9056093,11.0465753 Z" id="Shape"></path>
            <path d="M27.566605,0 C36.75383,0.031122593 45.941055,0 55.1308901,0.0155612965 C55.12306,4.18598875 55.12306,8.35641621 55.12828,12.5294372 C53.1838248,12.5346243 51.2393695,12.5216566 49.2923042,12.5372179 C49.2975242,10.2652686 49.2766441,7.99331929 49.3053542,5.72137001 C47.8907303,5.72396356 46.4761065,5.72137001 45.0640927,5.72396356 C45.0771427,14.9155027 45.0771427,24.1070418 45.0640927,33.2985809 C46.1863957,33.2985809 47.3086988,33.3089551 48.4336118,33.2985809 C48.4283918,35.2904269 48.4257818,37.2822728 48.4336118,39.2767123 C43.6990589,39.2559639 38.9671161,39.2637446 34.2325632,39.2715252 C34.2430032,37.2822728 34.2430032,35.2904269 34.2325632,33.3011745 C35.3392062,33.3011745 36.4458492,33.3011745 37.5551022,33.303768 C37.5524922,24.1096354 37.5551022,14.9155027 37.5524922,5.72137001 C36.1587484,5.72396356 34.7623946,5.71877646 33.3686508,5.72915066 C33.3764808,7.99591284 33.3582108,10.2652686 33.3764808,12.5320308 C31.4398556,12.5294372 29.5032303,12.5216566 27.566605,12.5398114 C27.566605,8.35900976 27.563995,4.17820811 27.566605,0 Z" id="Path"></path>
            <path d="M58.1989213,0.0103783095 C62.5416583,-0.0103783095 66.8869974,0.00778373213 71.2297344,0 C71.2063164,2.03933782 71.2011124,4.08127021 71.2349384,6.12060803 C70.2669946,6.11801345 69.3016528,6.12060803 68.3363111,6.11801345 C68.3363111,15.2664933 68.3441171,24.4175677 68.3311071,33.5660475 C70.4022986,33.5686421 72.4734902,33.5608584 74.5472837,33.5712367 C74.5108557,31.0622804 74.5472837,28.553324 74.5264677,26.0443677 C76.8422472,26.0469623 79.1554247,26.0443677 81.4712042,26.0469623 C81.4607962,30.4577438 81.4660002,34.8659308 81.4686022,39.2767123 C73.7120419,39.2611449 65.9554816,39.2793069 58.1989213,39.266334 C58.1989213,37.2814823 58.1989213,35.2940361 58.1963193,33.3091844 C59.0653871,33.3039952 59.9318529,33.3039952 60.8009207,33.3091844 C60.7644927,24.243731 60.7983187,15.1808722 60.7827067,6.11541888 C59.9188429,6.12060803 59.0575811,6.12060803 58.1937173,6.10763514 C58.2067273,4.07348648 58.1937173,2.0419324 58.1989213,0.0103783095 Z" id="Path"></path>
        </g>
    </g>
</svg>