<?xml version="1.0" encoding="UTF-8"?>
<svg width="141px" height="72px" viewBox="0 0 141 72" version="1.1" xmlns="http://www.w3.org/2000/svg" xmlns:xlink="http://www.w3.org/1999/xlink">
    <title>ATL</title>
    <g id="Page-1" stroke="none" stroke-width="1" fill="none" fill-rule="evenodd">
        <g id="Storyboard" transform="translate(-1307.000000, -1407.000000)" fill="#D02231" fill-rule="nonzero" stroke="#FFDB3C" stroke-width="3">
            <g id="Face" transform="translate(1263.000000, 1302.000000)">
                <g id="ATL-Falcons-Logo-+-Some-News-Alert!-Mask" transform="translate(19.000000, 40.000000)">
                    <g id="ATL" transform="translate(29.000000, 69.000000)">
                        <path d="M15.7523617,-1.50518104 C16.1453308,-1.50330092 16.5383047,-1.50156984 16.9312798,-1.49998785 C21.1012952,-1.48320065 25.2713106,-1.48320063 29.4370882,-1.49998782 C29.8281384,-1.50156367 30.2192247,-1.50328774 30.6101106,-1.5045745 C30.705962,-1.12547462 30.8017547,-0.74635918 30.8974863,-0.367227547 C33.3675123,9.41496562 35.7966321,19.2069794 38.2257147,28.9988614 C39.6016285,34.5453114 40.9775307,40.0917191 42.3608574,45.6362735 L44.171,52.869 L44.1959503,52.8681273 C44.5192708,52.8513891 44.9900469,52.8332728 45.7498488,52.8301172 L45.9866018,52.8296357 C46.6686042,52.8296357 47.1403816,52.8411424 47.4836144,52.8548527 C47.4854281,53.3484598 47.4866018,53.8404539 47.4866018,54.3296357 C47.4866018,55.40328 47.4809482,56.4904714 47.4752832,57.5785292 C47.4640238,59.7410906 47.4526235,61.9071016 47.4864018,63.9755074 C47.4946608,64.4812467 47.5058099,64.99273 47.5183038,65.5082093 C47.0053031,65.5052097 46.4923214,65.502459 45.97936,65.4999825 C40.4135597,65.4731115 34.845046,65.4784936 29.2759897,65.4838678 L27.1860448,65.4858215 L27.1860448,65.4858215 L25.0960745,65.4873972 L23.5806541,65.4875724 C23.5862472,64.9833743 23.5911204,64.4792384 23.5952194,63.9751992 C23.6206103,60.8530146 23.6163633,57.7266392 23.5952043,54.6044547 C23.5917819,54.0994627 23.5879157,53.5943671 23.5836364,53.0895551 C24.0884567,53.0914992 24.5934446,53.0930732 25.0987929,53.0942938 C26.216604,53.0969938 27.3326604,53.097956 28.4490474,53.0970117 C28.3434836,52.5668208 28.2435871,52.0355613 28.1438242,51.504295 C28.005709,50.7687914 27.8678629,50.0332738 27.7133454,49.3009399 C26.0541868,49.1555935 24.3828204,49.1484364 22.709007,49.170583 L21.8719416,49.1835942 L20.0862327,49.2148917 C19.2884028,49.2271137 18.4910129,49.2342403 17.695011,49.2263152 C17.5253734,49.9746147 17.3581019,50.7235 17.1908246,51.4723839 C17.0699744,52.0134183 16.9491212,52.5544521 16.8275354,53.0952108 C17.2602133,53.0957268 17.6928912,53.095932 18.1255691,53.096138 C18.832376,53.0964745 19.5391829,53.096812 20.2459898,53.0984946 C20.7478814,53.0996894 21.2497697,53.1015624 21.7515745,53.1038747 C21.7481548,53.6047019 21.7451132,54.1056066 21.7423969,54.6066226 C21.7254623,57.7301564 21.7212163,60.8494975 21.7423845,63.9730313 C21.7457993,64.476907 21.7498738,64.9806647 21.7537932,65.484273 C21.2497119,65.4838707 20.7456104,65.4835101 20.2414853,65.4831963 C15.7427995,65.4803961 11.2459988,65.4813295 6.74856976,65.4822629 L3.37452058,65.4829048 L3.37452058,65.4829048 L0,65.4831966 L-1.51841931,65.483084 C-1.51141254,64.9778665 -1.50524497,64.4726314 -1.49991659,63.9673785 C-1.46609248,60.7600703 -1.46609248,57.552762 -1.49991659,54.3454538 C-1.50516445,53.8478355 -1.51122634,53.3502344 -1.51796454,52.8528837 C-1.01735666,52.8434244 -0.516725152,52.8350722 -0.0160294441,52.8297214 C0.774888264,52.8212689 1.56580587,52.8203072 2.35672365,52.819368 C5.29100045,40.7387689 8.28067005,28.6739163 11.2704611,16.6085979 L13.3718478,8.12531091 L13.3718478,8.12531091 L15.468905,-0.359283466 L15.7523617,-1.50518104 Z M22.6476688,25.0381529 C22.2927938,26.6282191 21.9400259,28.2189461 21.5872566,29.8096677 C21.0196116,32.3693155 20.4519651,34.9289496 19.875654,37.4862988 C20.6354339,37.4876759 21.3950221,37.487095 22.1544641,37.4865188 C23.1569243,37.4857582 24.1591313,37.4850085 25.1612418,37.4883311 C24.8183354,35.796828 24.4784758,34.1041025 24.1386136,32.4113555 C23.6449863,29.9527524 23.1513654,27.4941012 22.6476688,25.0381529 Z" id="Shape"></path>
                        <path d="M43.5039723,-1.50540658 C44.0049694,-1.50349273 44.5059672,-1.50168547 45.0069657,-1.49999142 C53.5751905,-1.47101935 62.1434153,-1.47516157 70.7124349,-1.47930043 C77.1419093,-1.48240589 83.5718309,-1.48551039 90.0025353,-1.47464128 C90.5029716,-1.47379545 91.0034028,-1.47286501 91.5030227,-1.4708643 L91.5030227,-1.4708643 L91.4999973,0.0281780474 C91.487218,6.82217388 91.4872184,13.6161697 91.495738,20.4143907 L91.495738,20.4143907 L91.4977428,21.9103799 L91.4977428,21.9103799 L89.9997333,21.9162652 C88.763545,21.9195568 87.5273566,21.9183717 86.2909174,21.917183 C84.3550855,21.915322 82.4186361,21.9134405 80.480599,21.928901 C79.9745613,21.9329379 79.4686506,21.9381552 78.9630635,21.9441165 C78.9655083,21.4379124 78.967472,20.931706 78.9686373,20.425496 C78.9715712,19.1509079 78.9694427,17.8763197 78.9673181,16.6017316 C78.9641082,14.6759819 78.9609304,12.7502325 78.9749613,10.8245049 L78.9749613,10.8245049 L76.0471374,10.8249567 L76.0471374,10.8249567 L75.0682301,10.8254865 C75.0867865,24.8048145 75.0867881,38.7840818 75.0683147,52.7615943 C76.6183632,52.7663487 77.8347539,52.7701264 79.0530292,52.7589119 C79.559479,52.75425 80.0655554,52.7470036 80.5711948,52.7387584 C80.5696031,53.2467779 80.568165,53.754782 80.5668312,54.2627867 C80.5583183,57.5051506 80.5540554,60.7475145 80.5668248,63.9941003 C80.5688091,64.4986051 80.5712039,65.0030048 80.5736998,65.5071871 C80.0692431,65.5045972 79.5647691,65.5021924 79.0602751,65.4999856 C71.3353882,65.4661951 63.6147591,65.4788686 55.8898735,65.4915401 C55.3863226,65.4923661 54.8827898,65.493192 54.380122,65.4938433 C54.3828927,64.9909068 54.3853231,64.4880378 54.3874261,63.985268 C54.4009644,60.7485762 54.400967,57.5076588 54.3839486,54.2709613 C54.3813062,53.7683881 54.3782522,53.2657175 54.3749952,52.7631517 L54.3749952,52.7631517 L57.8451609,52.7632438 L57.8451609,52.7632438 L59.8075024,52.7644269 C59.8057715,45.7746294 59.8057715,38.7848319 59.8057715,31.7950343 L59.8055479,21.3094178 L59.8055479,21.3094178 L59.8039828,10.8241208 L59.8039828,10.8241208 L57.5019169,10.8246167 L57.5019169,10.8246167 L55.9767048,10.8277144 C55.9775945,11.870281 55.9761945,12.913093 55.9747918,13.955961 C55.9718984,16.1070877 55.9689825,18.2584536 55.9863429,20.4083846 C55.9904171,20.9129308 55.9956091,21.417538 56.0016187,21.9220822 C55.4958745,21.9216312 54.9901303,21.9211713 54.4843867,21.9204952 C53.9572473,21.9197906 53.430108,21.9188511 52.9029686,21.9179116 C50.2739555,21.9132258 47.6449421,21.9085091 45.0159288,21.9331092 C44.5111146,21.9378328 44.0063206,21.9436372 43.5018285,21.9500464 L43.5018285,21.9500464 L43.5015978,17.0268825 L43.5015978,17.0268825 L43.5009468,13.6207075 C43.4999999,9.07911524 43.4990533,4.5381491 43.501894,-0.000938740285 C43.502208,-0.502665307 43.5025683,-1.00441477 43.5039723,-1.50540658 Z" id="Path"></path>
                        <path d="M117.800614,-1.50314112 C117.793274,-0.996281522 117.78675,-0.489471659 117.78092,0.0172554271 C117.742853,3.32622975 117.734321,6.63941448 117.789308,9.94838948 C117.797789,10.458752 117.807783,10.9691644 117.819065,11.4794957 C117.30823,11.4769306 116.797091,11.4746756 116.285502,11.4733068 C115.496767,11.4711965 114.709093,11.4711983 113.921948,11.4711983 L113.057609,11.4712616 L113.057609,11.4712616 L113.059463,22.1658133 C113.061874,32.5087603 113.064285,42.8526322 113.051098,53.1946062 L113.051098,53.1946062 L118.313724,53.1943628 L118.313724,53.1943628 L120.179883,53.1969758 C120.165338,51.4087323 120.168419,49.6204888 120.17154,47.832245 C120.175552,45.5340971 120.179605,43.2359491 120.145655,40.9378011 L120.145655,40.9378011 L134.50393,40.9431555 C134.48476,47.6031672 134.489259,54.259038 134.493757,60.9175511 L134.493757,60.9175511 L134.496726,65.503275 C127.41207,65.486554 120.327415,65.4883532 113.242759,65.4901509 C107.163837,65.4916935 101.084914,65.4932351 95.0059913,65.4830868 C94.5065876,65.4822531 94.0071842,65.4813405 93.5084798,65.4801576 L93.5084798,65.4801576 L93.5084954,63.9830889 C93.5084954,60.7495004 93.5084958,57.5116849 93.504249,54.2780963 C93.5035966,53.7813347 93.5028437,53.2844736 93.5020236,52.7879183 C93.9994752,52.7831232 94.4971247,52.7791221 94.995308,52.7761529 C95.9147893,52.7706729 96.8324939,52.7687296 97.7505169,52.7688022 C97.7218374,44.6007428 97.7261729,36.4338874 97.730513,28.2668073 C97.7334884,22.6680627 97.7364648,17.0692123 97.7286277,11.470093 C96.8118385,11.4706547 95.8955718,11.4657661 94.9775182,11.4520049 C94.4804668,11.4445543 93.9840169,11.4345197 93.4879608,11.4221228 C93.4927669,10.9290305 93.49687,10.4358492 93.5000308,9.9425621 C93.5125005,7.99649506 93.5102851,6.0518882 93.5080845,4.10788262 C93.5065393,2.74274528 93.5049977,1.37790345 93.5085004,0.0130616116 C93.5097734,-0.483009746 93.5117129,-0.979077684 93.51426,-1.47508392 C94.0099692,-1.47803241 94.5056632,-1.48070708 95.0013393,-1.48307185 C99.2577114,-1.50337811 103.515614,-1.50084685 107.77321,-1.49830856 C110.608569,-1.49661819 113.443792,-1.49492647 116.278336,-1.4999976 L116.278336,-1.4999976 Z" id="Path"></path>
                    </g>
                </g>
            </g>
        </g>
    </g>
</svg>