<?xml version="1.0" encoding="UTF-8"?>
<svg width="88px" height="23px" viewBox="0 0 88 23" version="1.1" xmlns="http://www.w3.org/2000/svg" xmlns:xlink="http://www.w3.org/1999/xlink">
    <title>Artboard</title>
    <g id="Artboard" stroke="none" stroke-width="1" fill="none" fill-rule="evenodd">
        <g id="Hawks" transform="translate(-0.000000, -0.449315)" fill="#D02231" fill-rule="nonzero">
            <path d="M29.0488103,0.504566959 C30.6581835,6.9700452 32.3169335,13.4220193 33.9401939,19.8829962 C34.3074334,19.8814957 34.6746729,19.8814957 35.0434555,19.8799952 C35.0403695,21.026346 35.0419125,22.1726967 35.0434555,23.317547 C32.5020963,23.3160466 29.960737,23.3220484 27.4193778,23.3145461 C27.4209208,22.2102082 27.4270929,21.1073708 27.4162918,20.0030329 C28.0551034,19.9985315 28.697001,20.0060338 29.3342696,19.944515 C29.1660801,19.1387684 29.0009766,18.3330219 28.826615,17.5302763 C27.3375976,17.5377786 25.8485802,17.5137713 24.3611058,17.5377786 C24.0802756,18.3375233 23.9552907,19.1792808 23.7408105,19.9970311 C24.3811651,19.9970311 25.0215197,19.9970311 25.6618744,19.9910292 C25.6587883,21.0998685 25.6603313,22.2102082 25.6603313,23.3205479 C23.2084675,23.3160466 20.7581466,23.3205479 18.3078257,23.317547 C18.3109118,22.1726967 18.3124548,21.0278464 18.3062827,19.8829962 C18.7306141,19.8814957 19.1534025,19.8814957 19.5777338,19.8799952 C21.2117954,13.4220193 22.8242547,6.95954198 24.4583163,0.501566041 C25.9874523,0.509068336 27.5181313,0.501566041 29.0488103,0.504566959 Z M26.7261472,7.24353797 C26.1884597,9.6632433 25.6493071,12.0844178 25.1057592,14.5041231 C26.1518325,14.5011848 27.1979058,14.5041231 28.2439791,14.502654 C27.6857803,12.0932327 27.3033921,9.64708255 26.7261472,7.24353797 Z" id="Shape"></path>
            <path d="M75.7680161,2.67245991 C76.6390518,1.16107775 78.3145966,0.160032425 80.0798751,0.0271636633 C81.2541488,-0.0513496956 82.5181563,0.00904519586 83.5454524,0.63262245 C84.029705,0.910438951 84.35615,1.36793025 84.6640294,1.81334258 C84.6516524,1.28337741 84.647011,0.753412233 84.6501052,0.221937188 C85.685137,0.223447061 86.7201689,0.215897699 87.7552007,0.22948655 C87.7598421,2.66340068 87.7521064,5.0973148 87.7582949,7.53122893 C86.582474,7.52669931 85.4066531,7.52820919 84.2308323,7.53122893 C84.122533,6.45468999 84.0374407,5.24075267 83.2282902,4.41787227 C82.4052156,3.67954473 81.07004,3.70370268 80.137119,4.22611849 C79.2134807,4.83157728 79.0463904,6.16177477 79.5615856,7.0752475 C80.0334611,7.90416739 80.8426115,8.47640898 81.6192722,9.01543339 C83.4263232,10.2354102 85.4097474,11.313459 86.7712242,13.0437727 C87.8108974,14.3196147 88.2982443,15.983494 88.1961335,17.603587 C88.120324,19.0379656 87.6747498,20.5266997 86.6196052,21.5700215 C85.3045424,22.9077683 83.3102883,23.3909274 81.4630118,23.3124141 C80.0489324,23.2807068 78.5667793,22.7069553 77.8303441,21.4658403 C77.841174,22.0063745 77.8473625,22.5484187 77.8504568,23.0904628 C76.8123307,23.0904628 75.7742046,23.088953 74.7360786,23.088953 C74.7453614,20.5282096 74.7515499,17.9659563 74.7329843,15.4052129 C75.8778625,15.4082327 77.0242879,15.4112524 78.1707133,15.4021932 C78.2697298,16.6372687 78.401236,18.0157821 79.3233272,18.9564325 C80.1154591,19.7611945 81.3794666,19.7974314 82.4268755,19.5709505 C83.1834234,19.4048646 83.7713338,18.7722281 83.8904631,18.0278611 C84.1921539,16.8954569 83.6088849,15.7479539 82.7223778,15.0322745 C80.7714434,13.3895334 78.2852011,12.3884881 76.6034678,10.4332035 C74.7035888,8.35108958 74.4142749,5.10033455 75.7680161,2.67245991 Z" id="Path"></path>
            <path d="M0.00450988921,0.622281443 C2.4669094,0.620782515 4.9323155,0.598298595 7.394715,0.632773939 C7.40674137,1.79594206 7.40223148,2.9606091 7.39772159,4.12377722 C6.87607774,4.12377722 6.35443389,4.12227829 5.83279004,4.12227829 C5.8493263,6.03191255 5.847823,7.9415468 5.83279004,9.85118106 C7.46386664,9.85417891 9.09494323,9.85267998 10.7245165,9.85118106 C10.7139935,7.9415468 10.7124902,6.03041362 10.7260198,4.12077936 C10.1983628,4.12227829 9.67220905,4.12227829 9.14605531,4.12527615 C9.14755861,2.95461339 9.14455201,1.78544956 9.14755861,0.616285731 C11.6084548,0.620782515 14.0708543,0.608791091 16.5332538,0.620782515 C16.539267,1.81392919 16.5332538,3.00707587 16.5377637,4.20022255 C16.0401726,4.19572576 15.5425815,4.19572576 15.0464937,4.19422684 C15.0464937,9.42548551 15.0495003,14.6567442 15.0449904,19.8880029 C15.5425815,19.885005 16.0401726,19.885005 16.539267,19.8805082 C16.5332538,21.0271881 16.5347571,22.173868 16.5377637,23.3205479 C14.0723576,23.3160512 11.6069515,23.319049 9.14154542,23.319049 C9.1490619,22.2113412 9.1490619,21.1021345 9.14154542,19.9944267 C9.66619587,19.9989235 10.1908463,20.0004225 10.7154968,20.0019214 C10.7260198,17.8719447 10.706477,15.741968 10.7245165,13.6119914 C9.09494323,13.6134903 7.46536993,13.6119914 5.83579663,13.6134903 C5.84631971,15.7329745 5.84631971,17.8509597 5.83579663,19.9704439 C6.35744048,20.0049192 6.88058763,20.0004225 7.40373478,20.0019214 C7.39922489,21.1081302 7.40223148,22.2128402 7.40223148,23.3175501 C4.93532209,23.3175501 2.46841269,23.319049 0,23.3175501 C0.00751648201,22.173868 0.00601318561,21.0316849 0,19.8880029 C0.496087813,19.8820071 0.992175625,19.8820071 1.48826344,19.8865039 C1.47924366,14.6567442 1.48074696,9.42698444 1.48676014,4.19872362 C0.992175625,4.19722469 0.497591109,4.19572576 0.0015032964,4.19572576 C0.00601318561,3.00407801 0.0030065928,1.81243026 0.00450988921,0.622281443 Z" id="Path"></path>
            <path d="M33.0846112,0.6161795 C35.4334495,0.620646444 37.7822877,0.614690518 40.1311259,0.619157462 C40.1372031,1.78056291 40.1341645,2.94196835 40.1326452,4.10337379 C39.6768551,4.10188481 39.221065,4.09890685 38.765275,4.0944399 C39.2104299,7.43422504 39.7664938,10.7591204 40.1782242,14.1033725 C41.0730921,9.62600557 41.8069141,5.11737008 42.6531643,0.629580332 C43.895952,0.614690518 45.1402589,0.604267649 46.3845658,0.626602369 C46.4149518,0.715941249 46.4757238,0.893130028 46.5045905,0.982468909 C47.3341285,5.35262913 48.0831435,9.74065713 48.9643377,14.1003945 C49.4186085,10.7620983 49.9154197,7.4297581 50.3924799,4.0944399 C49.9458057,4.10039583 49.5006507,4.10188481 49.0554957,4.10188481 C49.0600536,2.94047937 49.0585343,1.77907392 49.057015,0.619157462 C51.2858285,0.617668481 53.5131227,0.6161795 55.7419362,0.619157462 C55.7404169,1.80289763 55.7373783,2.98812677 55.7434555,4.17335591 C55.2542408,4.17335591 54.7650261,4.17633388 54.2758114,4.1748449 C53.1895117,10.5566189 52.1199243,16.9413709 51.0108351,23.3201669 C49.6799281,23.3008102 48.3459825,23.3425016 47.0165947,23.3022992 C46.4544536,20.6697801 46.0153759,18.0104595 45.4988138,15.3690066 C45.0886027,13.3663267 44.7999356,11.3398231 44.3426263,9.34756606 C43.526762,14.0050997 42.6334134,18.6507215 41.8388194,23.312722 C40.4699299,23.3216559 39.1010403,23.314211 37.7321508,23.317189 C36.6291388,16.9383929 35.56259,10.5536409 34.4656552,4.1748449 C34.0022686,4.17633388 33.5404013,4.17633388 33.078534,4.1748449 C33.0830919,2.98961575 33.0739761,1.80289763 33.0846112,0.6161795 Z" id="Path"></path>
            <path d="M56.9685864,0.679509117 C59.3482983,0.55963598 61.7325806,0.654036076 64.1153395,0.625566205 C64.1122925,1.7943293 64.110769,2.96309238 64.1153395,4.13185547 C63.6811411,4.13035706 63.2484662,4.12736023 62.8157913,4.12736023 C62.8188384,6.55628968 62.8218854,8.98372071 62.8127443,11.4111517 C64.1549506,8.99720644 65.4270757,6.54580078 66.7662349,4.13035706 C66.4706753,4.13035706 66.1781627,4.12586182 65.8856501,4.12885865 C65.8947911,2.97208287 65.8978381,1.81530709 65.8826031,0.660029732 C68.0612126,0.610582063 70.2474395,0.579115365 72.4245255,0.681007531 C72.4153845,1.85276745 72.419955,3.02452737 72.423002,4.19628729 C71.9050109,4.20377936 71.3900669,4.20377936 70.8735993,4.20677619 C69.8086706,6.08728603 68.6858488,7.93782759 67.6254907,9.81983584 C67.6757663,10.2124204 67.8890567,10.5645477 68.0276955,10.9316592 C69.2236454,13.8131097 70.3784608,16.7095444 71.5789813,19.5879981 C71.7541841,20.1364177 72.4610896,19.7977761 72.895288,19.8816873 C72.892241,21.0279742 72.892241,22.1742611 72.895288,23.3205479 C70.5582342,23.3160527 68.2211804,23.3205479 65.8826031,23.3175511 C65.8947911,22.210223 65.8993617,21.1043933 65.8810796,19.9985636 C66.324419,20.000062 66.7692819,20.0015605 67.2141448,20.0030589 C66.3548891,17.9682124 65.5230564,15.9243754 64.6607536,13.8910273 C64.0620169,15.0373142 63.390152,16.1506359 62.8416909,17.319399 C62.7807508,18.2124539 62.8310264,19.1115024 62.8264559,20.0075541 C63.2576072,19.99257 63.6902821,20.000062 64.122957,20.0030589 C64.104675,21.1073901 64.110769,22.2147183 64.11991,23.3205479 C61.7356276,23.3145543 59.3528688,23.3220464 56.9701099,23.3160527 C56.9777274,22.1742611 56.9746804,21.0324694 56.9716334,19.8906778 C57.4743894,19.8846841 57.978669,19.8831857 58.4829485,19.8846841 C58.4707605,14.6582154 58.4707605,9.43174656 58.4829485,4.20527777 C57.978669,4.20377936 57.4743894,4.20228094 56.9716334,4.1977857 C56.9746804,3.02452737 56.9792509,1.85126904 56.9685864,0.679509117 Z" id="Path"></path>
        </g>
    </g>
</svg>