<?xml version="1.0" encoding="UTF-8"?>
<svg width="180px" height="180px" viewBox="0 0 180 180" version="1.1" xmlns="http://www.w3.org/2000/svg" xmlns:xlink="http://www.w3.org/1999/xlink">
    <title>Artboard</title>
    <g id="Artboard" stroke="none" stroke-width="1" fill="none" fill-rule="evenodd">
        <circle id="Oval" fill="#FFFFFF" cx="90" cy="90" r="90"></circle>
        <g id="ATL-Hawks-Logo" transform="translate(13.000000, 6.000000)" fill="#E03A3E" fill-rule="nonzero">
            <path d="M77.0529454,149.425336 C59.441156,149.480778 42.5606679,142.384314 30.2759245,129.75988 C64.1390439,112.24816 85.3752374,116.841398 85.3752374,120.286327 C85.3752374,123.731255 80.0661891,131.769422 80.0661891,131.769422 C107.759333,127.893817 127.847624,111.243389 127.847624,88.7077438 C127.847624,66.3157088 106.898407,55.4067686 101.589358,52.1053788 C95.8498464,48.5169117 98.4326267,43.6365963 79.6357257,36.6032007 C68.1567022,32.2970401 52.0860692,27.9908795 45.7726063,26.411954 C69.7668415,13.3680153 99.3348678,16.5961755 119.951544,34.5106172 C140.56822,52.425059 147.900755,81.2608917 138.34708,106.852661 C128.793404,132.44443 104.361312,149.413782 77.0529454,149.425336 L77.0529454,149.425336 Z M77.0529454,0.000299922012 C50.542147,-0.0706398473 25.5701739,12.4464073 9.75716999,33.7324988 C11.9094869,34.4501922 16.2141207,35.5985734 21.3796813,37.1774272 C29.5584856,39.6175849 56.8211664,47.5122126 61.986727,49.2346769 C76.9094576,53.9714535 80.783628,55.8374564 85.0882619,60.4306944 C90.1946264,65.6327518 95.8199793,70.2981601 101.876334,74.353947 C108.046309,78.8036463 111.059553,83.5404229 111.059553,91.1479733 C111.059553,98.6120448 105.320041,104.927687 101.732846,107.224378 C101.732846,107.224378 103.024236,103.492372 101.302383,101.913375 C99.5805291,100.334377 93.9845051,97.3201368 79.9227013,98.3249076 C65.8608975,99.3296784 47.0639964,106.219535 34.2935828,112.965854 C34.2935828,112.965854 40.4635579,103.348762 49.5032889,99.042601 C49.5032889,99.042601 42.0419236,99.042601 0,117.415553 C16.6948357,155.921101 59.2410955,176.188112 99.6467613,164.882524 C140.052427,153.576936 165.913469,114.16942 160.215403,72.5869543 C154.517335,31.0044884 119.009392,0.0123641911 77.0529454,0.000299922012 L77.0529454,0.000299922012 Z" id="Shape"></path>
            <path d="M75,61.4184067 C71.7134637,61.5580919 68.4426364,60.9017521 65.48,59.5080785 C60.72,57.0519422 53.44,51.8667655 47,57.5977502 C47,57.5977502 52.32,56.9154901 51.9,58.2800103 C51.48,59.7810621 50.92,67.6951996 58.34,70.697144 C65.62,73.83562 74.16,71.5158675 75,61.4184067 Z" id="Path"></path>
        </g>
    </g>
</svg>