<?xml version="1.0" encoding="UTF-8"?>
<svg width="148px" height="42px" viewBox="0 0 148 42" version="1.1" xmlns="http://www.w3.org/2000/svg" xmlns:xlink="http://www.w3.org/1999/xlink">
    <title>Hawks</title>
    <g id="Page-1" stroke="none" stroke-width="1" fill="none" fill-rule="evenodd">
        <g id="Storyboard" transform="translate(-1303.000000, -1493.000000)" fill="#D02231" fill-rule="nonzero" stroke="#FFDB3C" stroke-width="1.5">
            <g id="Face" transform="translate(1263.000000, 1302.000000)">
                <g id="ATL-Falcons-Logo-+-Some-News-Alert!-Mask" transform="translate(19.000000, 40.000000)">
                    <g id="Hawks" transform="translate(23.000000, 153.000000)">
                        <path d="M39.3452279,0.0639924545 L39.9313515,0.0672929438 C41.3982594,0.0744766444 42.8660379,0.0732050901 44.334175,0.0719373783 C45.3636759,0.0710484214 46.3933529,0.0701603067 47.4230298,0.0721752757 C47.6179796,0.0725567719 47.8129291,0.0730423319 48.008034,0.0739945024 C48.0550888,0.262901438 48.1021689,0.451802638 48.1492753,0.640697914 C49.680607,6.78129356 51.2393302,12.9144118 52.797997,19.0473183 L54.3977345,25.3463894 L54.3977345,25.3463894 L55.9908694,31.6468542 L56.3570883,31.6460877 L56.436516,31.6459172 L56.436516,31.6459172 L56.7771009,31.6451249 L56.8361763,31.6449693 L56.8361763,31.6449693 L57.1041736,31.644134 L57.2046465,31.6437484 L57.9601222,31.6399555 C57.9591861,31.8918874 57.9583691,32.1438258 57.9576896,32.395765 C57.9526544,34.2626904 57.955174,36.1296157 57.9576916,37.9940974 L57.9581896,38.36997 L57.9581896,38.36997 L57.9586299,38.745679 L57.2072503,38.74511 C55.7258296,38.7442369 54.2444089,38.744923 52.7629882,38.745609 C50.0951049,38.7468443 47.4272217,38.7480782 44.7593384,38.740217 C44.5097129,38.7394814 44.2600878,38.7386662 44.0108432,38.7377273 L44.0111224,38.363479 L44.0111224,38.363479 L44.0115491,37.9891704 L44.0138648,36.8314836 C44.017109,35.4214431 44.0203695,34.0122626 44.0065465,32.6015764 C44.0040812,32.349988 44.0010737,32.098458 43.9976834,31.8471914 C44.2333074,31.8466777 44.4838554,31.8454653 44.7530846,31.8442355 C45.6582872,31.8401007 46.3523164,31.8376977 46.977734,31.8098369 C46.7913164,30.9145062 46.6248508,30.1149679 46.4538747,29.3170161 C45.6914928,29.3184519 44.9291314,29.3159106 44.1668681,29.3133641 C42.8827343,29.3090743 41.5988797,29.3047489 40.3156998,29.3197931 C40.1214786,29.9634198 39.9778065,30.6206407 39.8330128,31.2775478 C39.7920918,31.4632003 39.7511436,31.6488482 39.7093753,31.8341747 C40.434732,31.8335484 41.1600887,31.8314869 41.8854454,31.824701 L42.2652857,31.8207416 L42.2652857,31.8207416 L42.6449989,31.8160764 L42.6424587,32.5767593 L42.6394501,34.6090946 L42.6394501,34.6090946 L42.6395331,38.7515405 C42.3892211,38.7509736 42.1388997,38.7504575 41.8885682,38.7499987 L38.6149193,38.7467263 L38.6149193,38.7467263 L32.6140639,38.7468654 L29.8862175,38.7451096 L29.1349496,38.7437481 C29.1357403,38.4935273 29.1364613,38.2433061 29.1371371,37.9930847 C29.1421695,36.1296174 29.1446912,34.2661502 29.1346263,32.4026829 L29.1324327,32.0272236 L29.1324327,32.0272236 L29.1299276,31.6520176 L29.8819683,31.6486368 L30.9210978,31.6461884 C32.6616831,26.5718533 33.9391646,21.4971387 35.2166464,16.4224242 C36.5417165,11.158668 37.866787,5.89491198 39.2006741,0.632989699 C39.2487898,0.44318281 39.2969167,0.253379288 39.3452279,0.0639924545 Z M43.6269953,15.2656839 C43.0608013,17.8038264 42.4930906,20.343116 41.9225606,22.8815675 L41.9225606,22.8815675 L43.9123883,22.8819964 L44.5406378,22.8822172 L44.5406378,22.8822172 L45.1688872,22.8822524 C44.8225136,21.3161301 44.5138149,19.7420447 44.2052612,18.1681591 C44.015448,17.1999509 43.8256997,16.2318167 43.6269953,15.2656839 Z" id="Shape"></path>
                        <path d="M130.678743,-0.704073117 C132.749976,-0.842302544 134.968371,-0.705111346 136.774849,0.389197724 C137.014287,0.527830939 137.23387,0.689240124 137.437974,0.866944909 C137.438039,0.449071891 137.441026,0.0307404941 137.446934,-0.388321882 L137.446934,-0.388321882 L141.570885,-0.388540684 C142.136696,-0.386984499 142.702507,-0.383410239 143.268318,-0.375995472 C143.514548,-0.372768708 143.760758,-0.36881487 144.006859,-0.364172433 L144.006859,-0.364172433 L144.008489,0.372507267 C144.012055,2.23944835 144.011147,4.10638944 144.010238,5.97333052 C144.009216,8.07220637 144.008192,10.1710822 144.013539,12.2699581 L144.013539,12.2699581 L144.015686,13.0252577 C143.764011,13.0239679 143.512335,13.0228308 143.260657,13.021863 C141.342757,13.0144883 139.424857,13.0169496 137.506956,13.0218661 L137.506956,13.0218661 L136.826717,13.0236536 C136.804766,12.7989061 136.781221,12.5727936 136.758703,12.34596 L136.758703,12.34596 L136.702249,11.7691461 C136.55034,10.2376568 136.355481,8.77464659 135.349331,7.74086896 C134.833141,7.28773033 134.164593,7.0687901 133.47978,7.02638774 C132.693104,6.97767818 131.878853,7.16094863 131.21065,7.52857433 C130.666822,7.8940075 130.347383,8.4674764 130.222973,9.08222049 C130.081284,9.78234336 130.187448,10.5438231 130.534082,11.1573042 C131.249701,12.4120752 132.494056,13.2600038 133.660841,14.0683656 C134.233155,14.4540329 134.816407,14.8308961 135.402045,15.2093585 L135.402045,15.2093585 L136.349759,15.8242666 C138.522306,17.2451583 140.635223,18.7528126 142.241452,20.790243 C144.052078,23.0137049 144.904998,25.9098034 144.727254,28.7240729 C144.593685,31.2466533 143.78604,33.8509975 141.939014,35.6738496 C139.64957,37.9984844 136.186222,38.8719138 132.960412,38.7363427 C131.12371,38.6934485 129.242552,38.1276742 127.834707,36.9911035 C127.83651,37.2009789 127.837994,37.4108871 127.839195,37.6207953 C127.840633,37.8722197 127.841663,38.1236487 127.842186,38.3749387 C127.591193,38.3750306 127.3402,38.3750846 127.089207,38.3750846 C126.241666,38.3750846 125.394126,38.3744694 124.546585,38.3738542 C123.699407,38.3732393 122.852229,38.3726243 122.005051,38.3726243 L122.005051,38.3726243 L121.252262,38.3720071 C121.253217,38.1212969 121.254146,37.8705943 121.255056,37.6199005 C121.2702,33.4499838 121.280308,29.2776084 121.25002,25.1076917 C121.248184,24.8549618 121.2462,24.602225 121.244203,24.3502035 C121.496835,24.3509171 121.749428,24.351582 122.001975,24.3522468 C123.868336,24.3571605 125.73722,24.362088 127.606104,24.347347 L127.606104,24.347347 L128.304941,24.3412393 C128.322127,24.5761134 128.341243,24.8085857 128.359612,25.037278 C128.50699,26.8721921 128.645673,28.955017 130.027658,30.3622169 C131.148121,31.4984424 132.945505,31.4713766 134.399577,31.1575475 C134.865263,31.0555038 135.278366,30.8095352 135.594846,30.4764802 C135.913208,30.1414437 136.135054,29.7172573 136.208847,29.2570195 C136.416434,28.4642051 136.335094,27.7424985 136.076431,27.0803771 C135.773452,26.3048129 135.229955,25.608794 134.571926,25.0785466 C133.3071,24.0157034 131.915079,23.1294996 130.524953,22.2419406 C128.346549,20.8510879 126.17697,19.4532496 124.485231,17.4904173 C122.849557,15.6937107 121.896353,13.4023391 121.640631,11.0312555 C121.380102,8.6155937 121.844367,6.12014485 123.040158,3.97966181 C124.5821,1.30909305 127.544525,-0.468629008 130.678743,-0.704073117 Z" id="Path"></path>
                        <path d="M3.25221562,0.25706043 C6.19560917,0.248535169 9.14021433,0.240042004 12.0821944,0.28115576 C12.325863,0.284560995 12.5695401,0.2883069 12.8128241,0.292366885 C12.8161814,0.536040916 12.8191505,0.779693043 12.821674,1.02331411 C12.8413437,2.92221403 12.8339929,4.82356096 12.8266168,6.72246099 C12.8256502,6.97129756 12.8246828,7.22017615 12.8235982,7.46904386 L12.8235982,7.46904386 L11.4374053,7.46916588 L11.4374053,7.46916588 L10.7981882,7.46832571 C10.624735,7.46807696 10.4512818,7.46782817 10.2778708,7.46796101 C10.2965681,10.0799138 10.2949874,12.6918308 10.2776903,15.3033427 C12.4370209,15.3062313 14.5961793,15.3047281 16.7536873,15.3025167 C16.7413186,12.690903 16.7398684,10.0778578 16.7551136,7.46636309 C16.0790821,7.4676435 15.5070436,7.46872475 14.9350052,7.47197802 L14.9350052,7.47197802 L14.1794213,7.47726928 C14.1799632,7.22522713 14.1804161,6.97314771 14.1807405,6.72102526 C14.1817918,5.90385927 14.181491,5.08714172 14.1811906,4.27068042 C14.1807897,3.18091074 14.18039,2.09159705 14.1831965,1.00228335 L14.1831965,1.00228335 L14.1856604,0.252555298 C14.435303,0.253202413 14.684937,0.25376154 14.9345619,0.254216836 C16.5705036,0.257200665 18.2068525,0.255726458 19.8434426,0.254252962 C22.2265641,0.252107331 24.6101966,0.249965388 26.9938292,0.261551797 L26.9938292,0.261551797 L27.7355518,0.265770249 C27.7373593,0.513096193 27.7389252,0.760424578 27.740174,1.00775617 C27.7454163,2.04600385 27.7450704,3.08425154 27.7447209,4.12249923 L27.7447294,5.48188588 L27.7447294,5.48188588 L27.7475405,6.84127254 C27.748502,7.09516189 27.7497568,7.34904902 27.7511467,7.60279051 C27.4977507,7.59937175 27.2442722,7.59636872 26.9907809,7.59408212 C26.3835875,7.58860498 25.776394,7.58723908 25.1702313,7.58586979 L25.313,7.585 L25.3138808,14.140633 C25.314361,17.0594865 25.3148411,19.97834 25.3146358,22.8971374 L25.3112777,31.6533049 C26.0195922,31.6507411 26.5059837,31.6489906 26.9932553,31.6446084 C27.2473004,31.6423238 27.5010934,31.6393282 27.7546528,31.6360429 C27.7528876,31.8901992 27.7513249,32.1443576 27.7499896,32.3985183 C27.7401836,34.2650222 27.7426403,36.131526 27.7475433,37.9980299 C27.7482032,38.2492287 27.7489073,38.5004272 27.7493049,38.7515083 C27.4982636,38.7509604 27.2472221,38.7504558 26.9961805,38.7499988 C24.1219203,38.7447659 21.2476602,38.7457632 18.3734,38.74676 C17.2233925,38.7471588 16.0733851,38.7475576 14.9233776,38.7475576 L14.1675457,38.7473391 C14.1697348,38.495677 14.1716846,38.2440459 14.1733949,37.992459 C14.1856423,36.1908862 14.1856423,34.3868756 14.1733949,32.5853028 C14.1716666,32.331077 14.1696938,32.0768059 14.1675125,31.8225432 L14.1675125,31.8225432 L14.9297937,31.8302317 C15.5351792,31.8354109 16.1405648,31.8381435 16.7458127,31.8401332 C16.7497879,30.5486856 16.7480595,29.257238 16.7463347,27.9657904 C16.7440931,26.2874449 16.7418606,24.6090995 16.7518714,22.9308246 C15.6736405,22.931475 14.5954096,22.931475 13.5171787,22.931475 L11.8986966,22.9315659 L11.8986966,22.9315659 L10.2802787,22.9322021 C10.2928862,25.8973063 10.2928438,28.8608641 10.2802233,31.8258619 C10.7683388,31.8407205 11.257045,31.8411352 11.7458503,31.8417876 C11.9321902,31.8420363 12.1185156,31.8423195 12.3048065,31.841928 C12.3654201,32.0256701 12.4209361,32.2123169 12.470544,32.4023338 C12.8233112,33.7535656 12.8321321,35.1021651 12.8331833,36.4517145 L12.8331833,36.4517145 L12.8335944,38.7451416 L12.8335944,38.7451416 L8.05714123,38.7456578 C5.37188198,38.7462006 2.68625913,38.7467434 -0.000454591721,38.745115 C-0.252334003,38.7449623 -0.504203803,38.7447906 -0.755736077,38.744334 L-0.755736077,38.744334 L-0.749983743,37.990177 C-0.737732764,36.1295521 -0.740188812,34.2713658 -0.749989595,32.4107409 C-0.751293056,32.163286 -0.752725968,31.9158756 -0.754245495,31.6685031 C-0.505874379,31.6637511 -0.257471745,31.6598418 -0.00904709616,31.6568449 C0.553444535,31.6500592 1.11593617,31.6479523 1.67829802,31.6497186 C1.66538611,23.6284305 1.66743447,15.6072462 1.67621528,7.58947429 C1.11892594,7.58794986 0.56127481,7.58678528 0.00245409925,7.58678528 C-0.248906578,7.58678528 -0.500030618,7.58702091 -0.750970845,7.58730997 C-0.749650324,7.33619205 -0.748492675,7.08506761 -0.74754051,6.83394162 C-0.742942728,5.62131316 -0.743136345,4.40868471 -0.74332792,3.19665211 L-0.743370934,2.10463481 L-0.743370934,2.10463481 L-0.742637102,1.0130363 C-0.742321171,0.763377748 -0.741883212,0.513679047 -0.741284909,0.264075416 C-0.491870269,0.264156889 -0.242472307,0.264137049 0.00690659593,0.263985525 C1.08838461,0.263328417 2.17021807,0.260194333 3.25221562,0.25706043 Z" id="Path"></path>
                        <path d="M69.6214109,0.27593229 C71.6576974,0.25158063 73.6964727,0.234619052 75.7352477,0.271146526 C75.9104549,0.274285606 76.085648,0.277819463 76.2607992,0.281747352 C76.3046322,0.407048983 76.364939,0.583556979 76.431561,0.778627276 C76.5169705,1.02870801 76.5919291,1.24830551 76.6312955,1.36991457 C77.1679767,4.16063688 77.66253,6.86467334 78.1570935,9.56879955 C78.6987953,12.5306637 79.2404968,15.4926382 79.8071653,18.4480141 C80.1248364,16.2107147 80.4495958,13.9743901 80.7743644,11.7380267 C80.982893,10.3020944 81.1914242,8.86614601 81.3979242,7.43017422 C80.9589392,7.4329917 80.5204939,7.4338748 80.0820485,7.4338748 L79.7053509,7.43361843 L79.7053509,7.43361843 L79.3285993,7.43269298 L79.3285993,7.43269298 L79.3320543,6.68092603 C79.3394898,4.78976888 79.3370079,2.89861174 79.3345294,1.00987917 L79.3345294,1.00987917 L79.3341471,0.259397543 C79.5840859,0.259228516 79.8340456,0.259061834 80.0840286,0.258895139 C83.7246711,0.256467461 87.3603558,0.25404359 90.99852,0.258895639 L90.99852,0.258895639 L91.7483964,0.260023553 C91.7481203,0.510006067 91.7478405,0.759953126 91.7475192,1.00985936 C91.7471652,1.28511742 91.7467608,1.56042489 91.7463563,1.8357747 C91.7439286,3.48832551 91.7414932,5.14240364 91.7499901,6.79648176 C91.751283,7.04816736 91.752829,7.29985035 91.7545333,7.55140126 C91.5030222,7.55081706 91.2515111,7.55033441 91,7.55033441 L90.5217319,7.55081911 L90.5217319,7.55081911 L90.0434638,7.55188499 C89.7746521,7.55253831 89.5058405,7.55319046 89.2369406,7.55347573 C88.7438831,10.4465072 88.2527952,13.3398916 87.7617005,16.2333156 C86.5227409,23.5329981 85.2837362,30.8329317 84.0129723,38.1280857 C83.9761307,38.3395846 83.9392626,38.5510783 83.9023112,38.7612484 C83.6892616,38.7564497 83.4762267,38.7523925 83.2632117,38.7493001 C82.3401654,38.7359001 81.4162191,38.7405974 80.4923341,38.7452466 C79.2376464,38.7515605 77.9830727,38.7577185 76.7309574,38.7199228 C76.535238,38.7140149 76.3395234,38.7070314 76.1437468,38.6990892 C76.1021813,38.5085267 76.0609833,38.3178867 76.0201814,38.1271633 C75.4560477,35.4901911 74.9675303,32.8367787 74.4791802,30.1837051 C74.172343,28.5167415 73.865548,26.8499173 73.5411511,25.1940131 C73.3486714,24.2560487 73.1724531,23.3149026 73.0012396,22.3716327 L73.0012396,22.3716327 L72.4959978,19.5632127 C72.0690353,21.2794413 71.6958924,23.3182709 71.322736,25.3571603 C70.5450611,29.6062991 69.7673208,33.8556969 69.040278,38.1134876 C69.0050442,38.3198283 68.9699291,38.5261899 68.9348357,38.7324673 C68.7251813,38.734266 68.5155244,38.7358662 68.3058643,38.737232 C66.9384002,38.7461401 65.570936,38.7450745 64.2034719,38.7440022 C63.3351674,38.7433214 62.4668629,38.7426394 61.5985585,38.7445249 L61.5985585,38.7445249 L60.9660211,38.7460337 C60.92997,38.5382096 60.8939417,38.3303813 60.8579371,38.1225486 C59.8780377,32.4661855 58.9157631,26.806949 57.9535328,21.1479658 C57.182919,16.6159005 56.4123334,12.0839979 55.6326075,7.55422446 C55.0869798,7.55499877 54.5422832,7.55450954 53.9975866,7.55275677 C53.7471212,7.55195081 53.4966575,7.55087768 53.2461125,7.54949054 L53.2461125,7.54949054 L53.2500056,6.79987115 C53.2530448,6.01102432 53.2523514,5.2217721 53.2516607,4.43228033 C53.2504425,3.03987144 53.2492416,1.6467202 53.2683256,0.253729591 L53.2683256,0.253729591 L66.2584774,0.259209287 C66.2724505,2.13159498 66.2696536,4.00398067 66.2668491,5.87636638 C66.2664442,6.14667225 66.2660394,6.41697811 66.2656851,6.68728398 C66.2653572,6.93751158 66.2650726,7.18773929 66.2647829,7.43793879 C66.0142791,7.4376564 65.7637588,7.43711394 65.5132402,7.43629706 C65.0563728,7.43480731 64.5995054,7.43240484 64.1427493,7.42917748 C64.426729,9.50378067 64.7339085,11.5752746 65.0410678,13.6467692 C65.2725404,15.2078302 65.5039937,16.7688926 65.7257111,18.3307711 C66.251103,15.5293558 66.7513556,12.7230202 67.2516555,9.91655492 C67.7885556,6.90477808 68.3254963,3.89284956 68.893415,0.886654223 C68.9314056,0.685556195 68.9695347,0.484484852 69.0079978,0.28353903 L69.0079978,0.28353903 Z" id="Path"></path>
                        <path d="M107.534955,0.325687271 C111.108808,0.244721687 114.695146,0.193656819 118.266489,0.360494496 C118.507136,0.371736488 118.747759,0.383969893 118.988089,0.397369481 C118.985562,0.636754354 118.983338,0.876143882 118.981467,1.11553892 C118.968058,2.8313081 118.972765,4.54707729 118.977459,6.26287898 L118.977459,6.26287898 L118.980987,7.57343041 C118.124207,7.59433419 117.274667,7.59787821 116.424765,7.60139766 C115.364515,8.95681772 114.5751,10.3022823 113.785726,11.6476336 C112.910942,13.1385519 112.036205,14.6293283 111.184888,16.1318728 C111.238891,16.3435556 111.32465,16.5465648 111.412189,16.7468913 L111.412189,16.7468913 L111.639859,17.2622094 C112.604906,19.5860745 113.532388,21.8591078 114.447615,24.1021204 C115.482918,26.6394117 116.502516,29.1382355 117.543176,31.6287885 C117.735257,31.7288883 117.945385,31.6810094 118.147516,31.6609158 C118.501541,31.6257229 118.851147,31.6039596 119.142055,31.6600754 C119.336444,31.6975727 119.542227,31.7770972 119.751522,31.8749108 L119.751522,31.8749108 L119.749997,32.3984967 C119.745027,34.2649987 119.745027,36.1315007 119.749997,37.9980027 C119.750667,38.2493152 119.751426,38.5006272 119.752065,38.7516282 L119.752065,38.7516282 L118.99856,38.7499986 C116.918104,38.7460043 114.837649,38.7463679 112.756789,38.746731 L110.154184,38.7468697 L110.154184,38.7468697 L107.550983,38.7451162 L107.550983,38.7451162 L106.792845,38.7437092 C106.79618,38.4914716 106.799205,38.2391859 106.801987,37.986847 C106.824624,35.9340557 106.831165,33.8844364 106.784563,31.8343664 L106.784563,31.8343664 L108.593961,31.8404566 C108.08152,30.6208986 107.57378,29.3998141 107.066061,28.1787742 C106.537656,26.9079877 106.009276,25.6372492 105.475576,24.3683848 L105.475576,24.3683848 L105.089009,25.0688881 C104.478396,26.1730599 103.867351,27.2769745 103.326962,28.4126953 C103.287107,29.0744008 103.284236,29.7379253 103.290706,30.3995819 L103.290706,30.3995819 L103.31,31.838 L103.733325,31.837289 L103.733325,31.837289 L104.332511,31.841448 C104.53612,31.8432077 104.739694,31.8449943 104.94322,31.8478122 C104.986965,32.0502735 105.027441,32.2539291 105.064234,32.4589261 C105.395271,34.3033362 105.409085,36.149592 105.424357,37.9937891 C105.426451,38.2466008 105.428573,38.4994507 105.429807,38.7521632 C105.177382,38.7513569 104.924947,38.7506311 104.672501,38.7499976 C102.727027,38.7451161 100.782175,38.7457274 98.8376341,38.7463376 L95.9190024,38.746566 L95.9190024,38.746566 L93.000604,38.7426728 L93.000604,38.7426728 L92.246565,38.7402633 C92.2488331,38.4894001 92.250827,38.2385334 92.2525038,37.9876624 C92.2649236,36.129493 92.2599448,34.2713236 92.2549769,32.4131543 L92.2549769,32.4131543 L92.2529643,31.6718636 L92.2529643,31.6718636 L92.9960501,31.6612022 C93.5699527,31.654373 94.1450658,31.6511064 94.7204564,31.6492069 C94.7028323,23.632541 94.7028356,15.6158975 94.720448,7.5999865 C93.8963763,7.59709104 93.0730586,7.59271323 92.2529828,7.58197732 L92.2529828,7.58197732 L92.256375,6.31658176 C92.2610943,4.58161906 92.2658307,2.84683943 92.2500312,1.11407415 L92.2500312,1.11407415 L92.2427409,0.398198764 C92.4825109,0.383628461 92.7223721,0.370247525 92.9623376,0.358182072 C94.9183549,0.259833623 96.8762471,0.249143492 98.8361556,0.257448792 L98.8361556,0.257448792 L101.752995,0.275184076 C102.721374,0.280008093 103.689753,0.280938379 104.657978,0.269391122 C104.911735,0.26636476 105.165482,0.262481324 105.419064,0.257914241 C105.418293,0.512374759 105.417584,0.766835602 105.416919,1.02129668 C105.411949,2.92412198 105.409461,4.8269473 105.416916,6.72977261 L105.416916,6.72977261 L105.419876,7.48530902 L104.664338,7.48270648 C104.427038,7.48188907 104.190017,7.48079851 103.95318,7.47970864 C103.73411,7.47870052 103.515199,7.47769256 103.296377,7.47701235 C103.299752,10.2064163 103.302525,12.933871 103.298186,15.6602549 C103.928764,14.5015211 104.553687,13.3397741 105.178614,12.1780385 C106.223272,10.2360271 107.267938,8.29404678 108.338802,6.3660945 L107.727,7.477 L107.564585,7.47778849 C107.437292,7.47909022 107.310017,7.481277 107.182658,7.483924 L106.800231,7.49282087 C106.802686,7.23585162 106.804905,6.97887243 106.80694,6.72189031 C106.82182,4.84224968 106.826808,2.96260887 106.802007,1.08540281 L106.802007,1.08540281 L106.790763,0.343045648 L106.790763,0.343045648 Z" id="Path"></path>
                    </g>
                </g>
            </g>
        </g>
    </g>
</svg>